<mxfile host="app.diagrams.net" agent="Mozilla/5.0 (Windows NT 10.0; Win64; x64; rv:133.0) Gecko/20100101 Firefox/133.0" version="24.9.0">
  <diagram name="Страница — 1" id="LgcWghBoFbZr3dwuOEuq">
    <mxGraphModel dx="2876" dy="1037" grid="1" gridSize="10" guides="1" tooltips="1" connect="1" arrows="1" fold="1" page="1" pageScale="1" pageWidth="827" pageHeight="1169" math="0" shadow="0">
      <root>
        <mxCell id="0" />
        <mxCell id="1" parent="0" />
        <mxCell id="3SY3Oq1GTvt2INatX-Ci-1" value="" style="verticalAlign=top;align=left;spacingTop=8;spacingLeft=2;spacingRight=12;shape=cube;size=10;direction=south;fontStyle=4;html=1;whiteSpace=wrap;" parent="1" vertex="1">
          <mxGeometry x="-180" y="40" width="546" height="230" as="geometry" />
        </mxCell>
        <mxCell id="3SY3Oq1GTvt2INatX-Ci-2" value="&quot;device&quot;&lt;br&gt;Web Server" style="text;html=1;align=center;verticalAlign=middle;whiteSpace=wrap;rounded=0;" parent="1" vertex="1">
          <mxGeometry x="48" y="70" width="90" height="50" as="geometry" />
        </mxCell>
        <mxCell id="yes6SvBXAqWt_Ocd289T-12" style="edgeStyle=orthogonalEdgeStyle;rounded=0;orthogonalLoop=1;jettySize=auto;html=1;endArrow=none;endFill=0;" edge="1" parent="1" source="3SY3Oq1GTvt2INatX-Ci-5" target="3SY3Oq1GTvt2INatX-Ci-1">
          <mxGeometry relative="1" as="geometry" />
        </mxCell>
        <mxCell id="3SY3Oq1GTvt2INatX-Ci-5" value="" style="verticalAlign=top;align=left;spacingTop=8;spacingLeft=2;spacingRight=12;shape=cube;size=10;direction=south;fontStyle=4;html=1;whiteSpace=wrap;" parent="1" vertex="1">
          <mxGeometry x="-180" y="330" width="546" height="370" as="geometry" />
        </mxCell>
        <mxCell id="3SY3Oq1GTvt2INatX-Ci-6" value="&quot;device&quot;&lt;br&gt;Application Server" style="text;html=1;align=center;verticalAlign=middle;whiteSpace=wrap;rounded=0;" parent="1" vertex="1">
          <mxGeometry x="48" y="360" width="90" height="50" as="geometry" />
        </mxCell>
        <mxCell id="3SY3Oq1GTvt2INatX-Ci-15" value="" style="verticalAlign=top;align=left;spacingTop=8;spacingLeft=2;spacingRight=12;shape=cube;size=10;direction=south;fontStyle=4;html=1;whiteSpace=wrap;" parent="1" vertex="1">
          <mxGeometry x="480" y="100" width="150" height="110" as="geometry" />
        </mxCell>
        <mxCell id="3SY3Oq1GTvt2INatX-Ci-18" value="&quot;device&quot;&lt;br&gt;User Workstation" style="text;html=1;align=center;verticalAlign=middle;whiteSpace=wrap;rounded=0;" parent="1" vertex="1">
          <mxGeometry x="507.5" y="130" width="95" height="50" as="geometry" />
        </mxCell>
        <mxCell id="3SY3Oq1GTvt2INatX-Ci-20" value="" style="endArrow=none;html=1;rounded=0;entryX=0;entryY=0;entryDx=60;entryDy=150;entryPerimeter=0;exitX=0.517;exitY=-0.003;exitDx=0;exitDy=0;exitPerimeter=0;" parent="1" source="3SY3Oq1GTvt2INatX-Ci-1" target="3SY3Oq1GTvt2INatX-Ci-15" edge="1">
          <mxGeometry width="50" height="50" relative="1" as="geometry">
            <mxPoint x="389" y="230" as="sourcePoint" />
            <mxPoint x="439" y="180" as="targetPoint" />
          </mxGeometry>
        </mxCell>
        <mxCell id="3SY3Oq1GTvt2INatX-Ci-21" value="1" style="text;html=1;align=center;verticalAlign=middle;whiteSpace=wrap;rounded=0;" parent="1" vertex="1">
          <mxGeometry x="366" y="130" width="20" height="30" as="geometry" />
        </mxCell>
        <mxCell id="3SY3Oq1GTvt2INatX-Ci-22" value="*" style="text;html=1;align=center;verticalAlign=middle;whiteSpace=wrap;rounded=0;" parent="1" vertex="1">
          <mxGeometry x="460" y="130" width="20" height="30" as="geometry" />
        </mxCell>
        <mxCell id="3SY3Oq1GTvt2INatX-Ci-23" value="&quot;https&quot;" style="text;html=1;align=center;verticalAlign=middle;whiteSpace=wrap;rounded=0;" parent="1" vertex="1">
          <mxGeometry x="390" y="130" width="60" height="30" as="geometry" />
        </mxCell>
        <mxCell id="yes6SvBXAqWt_Ocd289T-10" value="" style="group" vertex="1" connectable="0" parent="1">
          <mxGeometry x="138" y="145" width="157.5" height="70" as="geometry" />
        </mxCell>
        <mxCell id="yes6SvBXAqWt_Ocd289T-8" value="Frontend (React)" style="rounded=0;whiteSpace=wrap;html=1;" vertex="1" parent="yes6SvBXAqWt_Ocd289T-10">
          <mxGeometry width="157.5" height="70" as="geometry" />
        </mxCell>
        <mxCell id="3SY3Oq1GTvt2INatX-Ci-12" value="" style="shape=note;whiteSpace=wrap;html=1;backgroundOutline=1;darkOpacity=0.05;size=8;" parent="yes6SvBXAqWt_Ocd289T-10" vertex="1">
          <mxGeometry x="127.5" y="5" width="20" height="20" as="geometry" />
        </mxCell>
        <mxCell id="yes6SvBXAqWt_Ocd289T-11" value="" style="group" vertex="1" connectable="0" parent="1">
          <mxGeometry x="-150" y="120" width="184" height="120" as="geometry" />
        </mxCell>
        <mxCell id="yes6SvBXAqWt_Ocd289T-1" value="" style="verticalAlign=top;align=left;spacingTop=8;spacingLeft=2;spacingRight=12;shape=cube;size=10;direction=south;fontStyle=4;html=1;whiteSpace=wrap;" vertex="1" parent="yes6SvBXAqWt_Ocd289T-11">
          <mxGeometry width="184" height="120" as="geometry" />
        </mxCell>
        <mxCell id="yes6SvBXAqWt_Ocd289T-2" value="&amp;lt;&amp;lt;executionEnvironment&amp;gt;&amp;gt;" style="text;html=1;align=center;verticalAlign=middle;resizable=0;points=[];autosize=1;strokeColor=none;fillColor=none;" vertex="1" parent="yes6SvBXAqWt_Ocd289T-11">
          <mxGeometry y="25" width="170" height="30" as="geometry" />
        </mxCell>
        <mxCell id="yes6SvBXAqWt_Ocd289T-3" value="Node.js runtime" style="text;html=1;align=center;verticalAlign=middle;resizable=0;points=[];autosize=1;strokeColor=none;fillColor=none;" vertex="1" parent="yes6SvBXAqWt_Ocd289T-11">
          <mxGeometry x="30" y="65" width="110" height="30" as="geometry" />
        </mxCell>
        <mxCell id="yes6SvBXAqWt_Ocd289T-13" value="" style="group" vertex="1" connectable="0" parent="1">
          <mxGeometry x="-150" y="420" width="184" height="120" as="geometry" />
        </mxCell>
        <mxCell id="yes6SvBXAqWt_Ocd289T-5" value="" style="verticalAlign=top;align=left;spacingTop=8;spacingLeft=2;spacingRight=12;shape=cube;size=10;direction=south;fontStyle=4;html=1;whiteSpace=wrap;" vertex="1" parent="yes6SvBXAqWt_Ocd289T-13">
          <mxGeometry width="184" height="120" as="geometry" />
        </mxCell>
        <mxCell id="yes6SvBXAqWt_Ocd289T-6" value="&amp;lt;&amp;lt;executionEnvironment&amp;gt;&amp;gt;" style="text;html=1;align=center;verticalAlign=middle;resizable=0;points=[];autosize=1;strokeColor=none;fillColor=none;" vertex="1" parent="yes6SvBXAqWt_Ocd289T-13">
          <mxGeometry y="25" width="170" height="30" as="geometry" />
        </mxCell>
        <mxCell id="yes6SvBXAqWt_Ocd289T-7" value="Node.js runtime" style="text;html=1;align=center;verticalAlign=middle;resizable=0;points=[];autosize=1;strokeColor=none;fillColor=none;" vertex="1" parent="yes6SvBXAqWt_Ocd289T-13">
          <mxGeometry x="30" y="65" width="110" height="30" as="geometry" />
        </mxCell>
        <mxCell id="yes6SvBXAqWt_Ocd289T-14" value="" style="group" vertex="1" connectable="0" parent="1">
          <mxGeometry x="130" y="420" width="184" height="120" as="geometry" />
        </mxCell>
        <mxCell id="yes6SvBXAqWt_Ocd289T-15" value="" style="verticalAlign=top;align=left;spacingTop=8;spacingLeft=2;spacingRight=12;shape=cube;size=10;direction=south;fontStyle=4;html=1;whiteSpace=wrap;" vertex="1" parent="yes6SvBXAqWt_Ocd289T-14">
          <mxGeometry width="184" height="120" as="geometry" />
        </mxCell>
        <mxCell id="yes6SvBXAqWt_Ocd289T-16" value="&amp;lt;&amp;lt;executionEnvironment&amp;gt;&amp;gt;" style="text;html=1;align=center;verticalAlign=middle;resizable=0;points=[];autosize=1;strokeColor=none;fillColor=none;" vertex="1" parent="yes6SvBXAqWt_Ocd289T-14">
          <mxGeometry y="25" width="170" height="30" as="geometry" />
        </mxCell>
        <mxCell id="yes6SvBXAqWt_Ocd289T-17" value="Python Interpreter" style="text;html=1;align=center;verticalAlign=middle;resizable=0;points=[];autosize=1;strokeColor=none;fillColor=none;" vertex="1" parent="yes6SvBXAqWt_Ocd289T-14">
          <mxGeometry x="25" y="65" width="120" height="30" as="geometry" />
        </mxCell>
        <mxCell id="yes6SvBXAqWt_Ocd289T-18" value="" style="group" vertex="1" connectable="0" parent="1">
          <mxGeometry x="-71.25" y="810" width="320" height="230" as="geometry" />
        </mxCell>
        <mxCell id="3SY3Oq1GTvt2INatX-Ci-9" value="" style="verticalAlign=top;align=left;spacingTop=8;spacingLeft=2;spacingRight=12;shape=cube;size=10;direction=south;fontStyle=4;html=1;whiteSpace=wrap;" parent="yes6SvBXAqWt_Ocd289T-18" vertex="1">
          <mxGeometry width="320" height="230" as="geometry" />
        </mxCell>
        <mxCell id="3SY3Oq1GTvt2INatX-Ci-10" value="&quot;device&quot;&lt;br&gt;Database Server" style="text;html=1;align=center;verticalAlign=middle;whiteSpace=wrap;rounded=0;" parent="yes6SvBXAqWt_Ocd289T-18" vertex="1">
          <mxGeometry x="115" y="30" width="90" height="50" as="geometry" />
        </mxCell>
        <mxCell id="yes6SvBXAqWt_Ocd289T-22" value="" style="group" vertex="1" connectable="0" parent="yes6SvBXAqWt_Ocd289T-18">
          <mxGeometry x="81.25" y="120" width="157.5" height="70" as="geometry" />
        </mxCell>
        <mxCell id="yes6SvBXAqWt_Ocd289T-23" value="SQLite Database" style="rounded=0;whiteSpace=wrap;html=1;" vertex="1" parent="yes6SvBXAqWt_Ocd289T-22">
          <mxGeometry width="157.5" height="70" as="geometry" />
        </mxCell>
        <mxCell id="yes6SvBXAqWt_Ocd289T-24" value="" style="shape=note;whiteSpace=wrap;html=1;backgroundOutline=1;darkOpacity=0.05;size=8;" vertex="1" parent="yes6SvBXAqWt_Ocd289T-22">
          <mxGeometry x="127.5" y="5" width="20" height="20" as="geometry" />
        </mxCell>
        <mxCell id="yes6SvBXAqWt_Ocd289T-19" value="" style="group" vertex="1" connectable="0" parent="1">
          <mxGeometry x="-30" y="585" width="237.5" height="70" as="geometry" />
        </mxCell>
        <mxCell id="yes6SvBXAqWt_Ocd289T-20" value="Backend(Django/Express.js)" style="rounded=0;whiteSpace=wrap;html=1;" vertex="1" parent="yes6SvBXAqWt_Ocd289T-19">
          <mxGeometry width="237.5" height="70" as="geometry" />
        </mxCell>
        <mxCell id="yes6SvBXAqWt_Ocd289T-21" value="" style="shape=note;whiteSpace=wrap;html=1;backgroundOutline=1;darkOpacity=0.05;size=8;" vertex="1" parent="yes6SvBXAqWt_Ocd289T-19">
          <mxGeometry x="200" y="5" width="22.42" height="25" as="geometry" />
        </mxCell>
        <mxCell id="yes6SvBXAqWt_Ocd289T-25" style="edgeStyle=orthogonalEdgeStyle;rounded=0;orthogonalLoop=1;jettySize=auto;html=1;entryX=0;entryY=0;entryDx=0;entryDy=155;entryPerimeter=0;endArrow=none;endFill=0;" edge="1" parent="1" source="3SY3Oq1GTvt2INatX-Ci-5" target="3SY3Oq1GTvt2INatX-Ci-9">
          <mxGeometry relative="1" as="geometry" />
        </mxCell>
      </root>
    </mxGraphModel>
  </diagram>
</mxfile>
